<svg width="103" height="135" viewBox="0 0 103 135" fill="none" xmlns="http://www.w3.org/2000/svg">
<g clip-path="url(#clip0_937_253)">
<path d="M32.3302 107.27C20.2802 97.1195 11.7802 84.9995 7.06019 71.0795C4.04454 62.1657 2.6426 52.7856 2.92019 43.3795C2.92019 42.8491 3.1309 42.3404 3.50598 41.9653C3.88105 41.5902 4.38976 41.3795 4.92019 41.3795C12.4402 41.3795 18.6402 38.1795 23.3202 31.8695C25.5134 28.8886 27.187 25.5583 28.2702 22.0195C28.3808 21.5913 28.6302 21.2118 28.9794 20.9404C29.3286 20.669 29.7579 20.521 30.2002 20.5195H35.7802V24.5195H31.6602C29.9402 29.3395 23.3502 44.2095 6.89019 45.3195C6.86091 53.625 8.21268 61.8775 10.8902 69.7395C15.3302 82.9995 23.4202 94.5395 34.9102 104.21L32.3302 107.27Z" fill="#A68D67"/>
<path d="M37.89 111.61C37.06 111.01 36.64 110.68 36.01 110.17L35.25 109.56L37.74 106.43L38.52 107.05C39.09 107.52 39.47 107.82 40.23 108.37L37.89 111.61Z" fill="#A68D67"/>
<path d="M51.3602 119.55C51.0395 119.548 50.724 119.469 50.4402 119.32C47.0835 117.599 43.8312 115.683 40.7002 113.58L42.9302 110.26C45.6386 112.07 48.439 113.739 51.3202 115.26C62.6402 108.83 81.8202 94.7296 90.1902 69.7896C92.8367 61.9163 94.1876 53.6657 94.1902 45.3596C77.7402 44.2396 71.1902 29.3596 69.4302 24.5596H47.1702V20.5596H70.8402C71.2825 20.561 71.7118 20.709 72.061 20.9804C72.4102 21.2518 72.6596 21.6313 72.7702 22.0596C73.8687 25.6017 75.5593 28.9321 77.7702 31.9096C82.4502 38.2196 88.6502 41.4196 96.1702 41.4196C96.7006 41.4196 97.2093 41.6303 97.5844 42.0054C97.9595 42.3804 98.1702 42.8891 98.1702 43.4196C98.392 52.8082 96.981 62.164 94.0002 71.0696C85.0002 97.9996 64.0002 112.84 52.3202 119.3C52.0255 119.46 51.6958 119.546 51.3602 119.55Z" fill="#A68D67"/>
<path d="M43.4198 20.5703H39.5098V24.5703H43.4198V20.5703Z" fill="#A68D67"/>
<path d="M81.1001 68C79.9668 68 78.859 67.664 77.9167 67.0344C76.9744 66.4047 76.24 65.5098 75.8063 64.4628C75.3726 63.4158 75.2591 62.2637 75.4802 61.1522C75.7013 60.0407 76.247 59.0197 77.0484 58.2183C77.8498 57.417 78.8707 56.8712 79.9823 56.6501C81.0938 56.429 82.2459 56.5425 83.2929 56.9762C84.3399 57.4099 85.2348 58.1443 85.8644 59.0866C86.4941 60.0289 86.8301 61.1368 86.8301 62.27C86.8275 63.7889 86.2229 65.2448 85.1489 66.3188C84.0749 67.3929 82.619 67.9974 81.1001 68ZM81.1001 60.54C80.758 60.54 80.4235 60.6415 80.139 60.8316C79.8545 61.0217 79.6327 61.2919 79.5018 61.608C79.3709 61.9241 79.3366 62.272 79.4034 62.6075C79.4701 62.9431 79.6349 63.2514 79.8768 63.4933C80.1188 63.7353 80.427 63.9 80.7626 63.9668C81.0982 64.0336 81.446 63.9993 81.7622 63.8684C82.0783 63.7374 82.3485 63.5157 82.5386 63.2312C82.7287 62.9467 82.8301 62.6122 82.8301 62.27C82.8328 62.0412 82.79 61.8141 82.7042 61.6019C82.6185 61.3896 82.4914 61.1966 82.3305 61.0338C82.1696 60.871 81.978 60.7418 81.7668 60.6536C81.5556 60.5654 81.329 60.52 81.1001 60.52V60.54Z" fill="#A68D67"/>
<path d="M77.29 60.25H65.21V64.25H77.29V60.25Z" fill="#A68D67"/>
<path d="M51.5904 108.36C50.4571 108.36 49.3492 108.024 48.4069 107.395C47.4646 106.765 46.7302 105.87 46.2965 104.823C45.8628 103.776 45.7494 102.624 45.9705 101.513C46.1915 100.401 46.7373 99.38 47.5386 98.5787C48.34 97.7773 49.361 97.2316 50.4725 97.0105C51.584 96.7894 52.7361 96.9029 53.7831 97.3366C54.8302 97.7703 55.7251 98.5047 56.3547 99.447C56.9843 100.389 57.3204 101.497 57.3204 102.63C57.3177 104.149 56.7132 105.605 55.6392 106.679C54.5651 107.753 53.1092 108.358 51.5904 108.36ZM51.5904 100.9C51.2482 100.9 50.9137 101.002 50.6292 101.192C50.3447 101.382 50.123 101.652 49.992 101.968C49.8611 102.284 49.8268 102.632 49.8936 102.968C49.9603 103.303 50.1251 103.612 50.3671 103.854C50.609 104.096 50.9173 104.26 51.2528 104.327C51.5884 104.394 51.9363 104.36 52.2524 104.229C52.5685 104.098 52.8387 103.876 53.0288 103.592C53.2189 103.307 53.3204 102.973 53.3204 102.63C53.3177 102.172 53.1346 101.734 52.8107 101.41C52.4869 101.086 52.0484 100.903 51.5904 100.9Z" fill="#A68D67"/>
<path d="M53.5898 83.2402H49.5898V98.8302H53.5898V83.2402Z" fill="#A68D67"/>
<path d="M53.5898 9.40039H49.5898V22.1604H53.5898V9.40039Z" fill="#A68D67"/>
<path d="M71.8304 88.4405C70.6975 88.4385 69.5906 88.1008 68.6497 87.4699C67.7087 86.8391 66.9758 85.9435 66.5437 84.8963C66.1115 83.8491 65.9995 82.6973 66.2217 81.5865C66.4439 80.4756 66.9904 79.4556 67.7922 78.6552C68.5939 77.8549 69.6149 77.3101 70.7262 77.0898C71.8374 76.8696 72.989 76.9836 74.0354 77.4176C75.0819 77.8516 75.9762 78.586 76.6054 79.5281C77.2345 80.4702 77.5704 81.5776 77.5704 82.7105C77.5677 84.2311 76.9618 85.6885 75.8856 86.7628C74.8094 87.8371 73.351 88.4405 71.8304 88.4405ZM71.8304 80.9805C71.4886 80.9824 71.1551 81.0856 70.872 81.2769C70.5888 81.4682 70.3686 81.739 70.2392 82.0553C70.1098 82.3716 70.0769 82.7191 70.1448 83.0541C70.2127 83.389 70.3783 83.6963 70.6206 83.9372C70.8629 84.1782 71.1712 84.342 71.5065 84.4079C71.8418 84.4739 72.1892 84.439 72.5047 84.3078C72.8202 84.1766 73.0898 83.9548 73.2795 83.6706C73.4691 83.3863 73.5703 83.0522 73.5704 82.7105C73.5625 82.2542 73.3757 81.8193 73.0502 81.4994C72.7248 81.1796 72.2867 81.0004 71.8304 81.0005V80.9805Z" fill="#A68D67"/>
<path d="M19.1197 58.3204C17.9864 58.3204 16.8785 57.9843 15.9362 57.3547C14.9939 56.7251 14.2595 55.8302 13.8258 54.7831C13.3921 53.7361 13.2787 52.584 13.4998 51.4725C13.7208 50.361 14.2666 49.34 15.0679 48.5386C15.8693 47.7373 16.8903 47.1915 18.0018 46.9705C19.1133 46.7494 20.2654 46.8628 21.3124 47.2965C22.3594 47.7302 23.2544 48.4646 23.884 49.4069C24.5136 50.3492 24.8497 51.4571 24.8497 52.5904C24.847 54.1092 24.2425 55.5651 23.1685 56.6392C22.0944 57.7132 20.6385 58.3177 19.1197 58.3204ZM19.1197 50.8604C18.7775 50.8604 18.443 50.9618 18.1585 51.1519C17.874 51.342 17.6523 51.6122 17.5213 51.9283C17.3904 52.2444 17.3561 52.5923 17.4229 52.9279C17.4896 53.2634 17.6544 53.5717 17.8964 53.8136C18.1383 54.0556 18.4466 54.2204 18.7821 54.2871C19.1177 54.3539 19.4656 54.3196 19.7817 54.1887C20.0978 54.0577 20.368 53.836 20.5581 53.5515C20.7482 53.267 20.8497 52.9325 20.8497 52.5904C20.847 52.1323 20.6639 51.6938 20.34 51.37C20.0162 51.0461 19.5777 50.863 19.1197 50.8604Z" fill="#A68D67"/>
<path d="M73.8398 62.3203H69.8398V78.9103H73.8398V62.3203Z" fill="#A68D67"/>
<path d="M51.5904 91.9296H33.7604C32.3486 91.927 30.9954 91.3643 29.998 90.365C29.0006 89.3657 28.4404 88.0115 28.4404 86.5996V70.8896H32.4404V86.5996C32.4404 86.9507 32.5792 87.2874 32.8264 87.5366C33.0737 87.7857 33.4094 87.927 33.7604 87.9296H51.5904V91.9296Z" fill="#A68D67"/>
<path d="M35.6597 72.34H21.3897C20.1846 72.3722 19.0159 71.9249 18.1402 71.0962C17.2646 70.2674 16.7537 69.1251 16.7197 67.92V56.46H20.7197V67.92C20.7197 68.12 21.0097 68.34 21.3897 68.34H35.6597V72.34Z" fill="#A68D67"/>
<path d="M5.73 11.46C4.59672 11.46 3.48888 11.1239 2.54659 10.4943C1.60429 9.8647 0.869863 8.9698 0.436173 7.92278C0.00248271 6.87576 -0.11099 5.72365 0.110103 4.61213C0.331196 3.50062 0.876926 2.47964 1.67828 1.67828C2.47964 0.876926 3.50062 0.331196 4.61213 0.110103C5.72365 -0.11099 6.87576 0.00248271 7.92278 0.436173C8.9698 0.869863 9.8647 1.60429 10.4943 2.54659C11.1239 3.48888 11.46 4.59672 11.46 5.73C11.4574 7.24888 10.8528 8.70479 9.7788 9.7788C8.70479 10.8528 7.24888 11.4574 5.73 11.46ZM5.73 4C5.38784 4 5.05336 4.10147 4.76887 4.29156C4.48437 4.48166 4.26263 4.75184 4.13169 5.06796C4.00075 5.38408 3.96649 5.73192 4.03324 6.06751C4.1 6.4031 4.26476 6.71135 4.50671 6.9533C4.74865 7.19524 5.05691 7.36001 5.3925 7.42676C5.72808 7.49351 6.07593 7.45925 6.39204 7.32831C6.70816 7.19737 6.97835 6.97564 7.16844 6.69114C7.35854 6.40664 7.46 6.07216 7.46 5.73C7.45738 5.27199 7.27427 4.83348 6.9504 4.50961C6.62653 4.18574 6.18802 4.00263 5.73 4Z" fill="#A68D67"/>
<path d="M22.2701 24.9996H8.00008C6.80613 25.0402 5.64468 24.6064 4.7696 23.7932C3.89451 22.9799 3.37696 21.8533 3.33008 20.6596V9.59961H7.33008V20.5996C7.33008 20.6896 7.56008 20.9396 8.00008 20.9396H22.2701V24.9996Z" fill="#A68D67"/>
<path d="M93.8804 11.46C92.7471 11.46 91.6393 11.1239 90.697 10.4943C89.7547 9.8647 89.0203 8.9698 88.5866 7.92278C88.1529 6.87576 88.0394 5.72365 88.2605 4.61213C88.4816 3.50062 89.0273 2.47964 89.8287 1.67828C90.63 0.876926 91.651 0.331196 92.7625 0.110103C93.874 -0.11099 95.0261 0.00248271 96.0732 0.436173C97.1202 0.869863 98.0151 1.60429 98.6447 2.54659C99.2743 3.48888 99.6104 4.59672 99.6104 5.73C99.6077 7.24888 99.0032 8.70479 97.9292 9.7788C96.8552 10.8528 95.3993 11.4574 93.8804 11.46ZM93.8804 4C93.5382 4 93.2037 4.10147 92.9193 4.29156C92.6348 4.48166 92.413 4.75184 92.2821 5.06796C92.1511 5.38408 92.1169 5.73192 92.1836 6.06751C92.2504 6.4031 92.4152 6.71135 92.6571 6.9533C92.899 7.19524 93.2073 7.36001 93.5429 7.42676C93.8785 7.49351 94.2263 7.45925 94.5424 7.32831C94.8586 7.19737 95.1287 6.97564 95.3188 6.69114C95.5089 6.40664 95.6104 6.07216 95.6104 5.73C95.6078 5.27199 95.4247 4.83348 95.1008 4.50961C94.7769 4.18574 94.3384 4.00263 93.8804 4Z" fill="#A68D67"/>
<path d="M91.8999 24.9996H79.1699V20.9996H91.8999C91.9472 21.0023 91.9946 20.9957 92.0393 20.98C92.084 20.9644 92.1252 20.9401 92.1605 20.9085C92.1958 20.8769 92.2245 20.8387 92.245 20.7959C92.2655 20.7532 92.2774 20.7069 92.2799 20.6596V9.59961H96.2799V20.5996C96.2852 21.1772 96.1757 21.7501 95.9577 22.285C95.7397 22.82 95.4176 23.3062 95.0101 23.7156C94.6026 24.125 94.1178 24.4493 93.5839 24.6697C93.0499 24.8902 92.4776 25.0023 91.8999 24.9996Z" fill="#A68D67"/>
<path d="M51.5904 11.46C50.4571 11.46 49.3492 11.1239 48.4069 10.4943C47.4646 9.8647 46.7302 8.9698 46.2965 7.92278C45.8628 6.87576 45.7494 5.72365 45.9705 4.61213C46.1915 3.50062 46.7373 2.47964 47.5386 1.67828C48.34 0.876926 49.361 0.331196 50.4725 0.110103C51.584 -0.11099 52.7361 0.00248271 53.7831 0.436173C54.8302 0.869863 55.7251 1.60429 56.3547 2.54659C56.9843 3.48888 57.3204 4.59672 57.3204 5.73C57.3177 7.24888 56.7132 8.70479 55.6392 9.7788C54.5651 10.8528 53.1092 11.4574 51.5904 11.46ZM51.5904 4C51.2482 4 50.9137 4.10147 50.6292 4.29156C50.3447 4.48166 50.123 4.75184 49.992 5.06796C49.8611 5.38408 49.8268 5.73192 49.8936 6.06751C49.9603 6.4031 50.1251 6.71135 50.3671 6.9533C50.609 7.19524 50.9173 7.36001 51.2528 7.42676C51.5884 7.49351 51.9363 7.45925 52.2524 7.32831C52.5685 7.19737 52.8387 6.97564 53.0288 6.69114C53.2189 6.40664 53.3204 6.07216 53.3204 5.73C53.3204 5.27118 53.1381 4.83115 52.8136 4.50671C52.4892 4.18227 52.0492 4 51.5904 4Z" fill="#A68D67"/>
<path d="M98.7896 124.16H94.7896V107C94.8259 106.693 94.7835 106.381 94.6663 106.094C94.5491 105.807 94.361 105.555 94.1196 105.36H79.8496V101.36H94.1196C96.7396 101.36 98.7896 103.84 98.7896 107V124.16Z" fill="#A68D67"/>
<path d="M9.83984 124.16H5.83984V107C5.83984 103.84 7.76984 101.36 10.2198 101.36H22.9998V105.36H10.3398C9.98271 105.83 9.80535 106.412 9.83984 107V124.16Z" fill="#A68D67"/>
<path d="M67.4497 45.2696C66.3164 45.2696 65.2086 44.9335 64.2663 44.3039C63.324 43.6743 62.5896 42.7794 62.1559 41.7323C61.7222 40.6853 61.6087 39.5332 61.8298 38.4217C62.0509 37.3102 62.5967 36.2892 63.398 35.4878C64.1994 34.6865 65.2203 34.1408 66.3319 33.9197C67.4434 33.6986 68.5955 33.8121 69.6425 34.2457C70.6895 34.6794 71.5844 35.4139 72.214 36.3562C72.8437 37.2984 73.1797 38.4063 73.1797 39.5396C73.1771 41.0585 72.5725 42.5144 71.4985 43.5884C70.4245 44.6624 68.9686 45.2669 67.4497 45.2696ZM67.4497 37.8096C67.1076 37.8096 66.7731 37.911 66.4886 38.1011C66.2041 38.2912 65.9824 38.5614 65.8514 38.8775C65.7205 39.1936 65.6862 39.5415 65.753 39.8771C65.8197 40.2127 65.9845 40.5209 66.2264 40.7629C66.4684 41.0048 66.7766 41.1696 67.1122 41.2363C67.4478 41.3031 67.7957 41.2688 68.1118 41.1379C68.4279 41.0069 68.6981 40.7852 68.8882 40.5007C69.0783 40.2162 69.1797 39.8817 69.1797 39.5396C69.1797 39.0807 68.9975 38.6407 68.673 38.3163C68.3486 37.9918 67.9086 37.8096 67.4497 37.8096Z" fill="#A68D67"/>
<path d="M52.1904 57.7904H48.1904V42.0804C48.1904 39.3604 50.1904 37.1504 52.5304 37.1504H63.5304V41.1504H52.5304C52.4098 41.2715 52.3169 41.4174 52.2582 41.578C52.1995 41.7386 52.1763 41.91 52.1904 42.0804V57.7904Z" fill="#A68D67"/>
<path d="M32.9995 45.2696C31.8662 45.2696 30.7584 44.9335 29.8161 44.3039C28.8738 43.6743 28.1394 42.7794 27.7057 41.7323C27.272 40.6853 27.1585 39.5332 27.3796 38.4217C27.6007 37.3102 28.1465 36.2892 28.9478 35.4878C29.7492 34.6865 30.7702 34.1408 31.8817 33.9197C32.9932 33.6986 34.1453 33.8121 35.1923 34.2457C36.2393 34.6794 37.1342 35.4139 37.7639 36.3562C38.3935 37.2984 38.7295 38.4063 38.7295 39.5396C38.7269 41.0585 38.1223 42.5144 37.0483 43.5884C35.9743 44.6624 34.5184 45.2669 32.9995 45.2696ZM32.9995 37.8096C32.6574 37.8096 32.3229 37.911 32.0384 38.1011C31.7539 38.2912 31.5322 38.5614 31.4012 38.8775C31.2703 39.1936 31.236 39.5415 31.3028 39.8771C31.3695 40.2127 31.5343 40.5209 31.7762 40.7629C32.0182 41.0048 32.3264 41.1696 32.662 41.2363C32.9976 41.3031 33.3455 41.2688 33.6616 41.1379C33.9777 41.0069 34.2479 40.7852 34.438 40.5007C34.6281 40.2162 34.7295 39.8817 34.7295 39.5396C34.7269 39.0816 34.5438 38.643 34.2199 38.3192C33.8961 37.9953 33.4575 37.8122 32.9995 37.8096Z" fill="#A68D67"/>
<path d="M52.2596 57.7896H48.2596V42.0797C48.2776 41.9048 48.2533 41.7282 48.1889 41.5647C48.1246 41.4011 48.0219 41.2554 47.8896 41.1396H36.8896V37.1396H47.8896C50.2796 37.1396 52.2296 39.3496 52.2296 42.0696L52.2596 57.7896Z" fill="#A68D67"/>
<path d="M57.7399 134.16H45.3799V121.79H57.7399V134.16ZM49.3799 130.16H53.7399V125.79H49.3799V130.16Z" fill="#A68D67"/>
<path d="M13.7399 134.16H1.37988V121.79H13.7399V134.16ZM5.37988 130.16H9.73988V125.79H5.37988V130.16Z" fill="#A68D67"/>
<path d="M102.74 134.16H90.3799V121.79H102.74V134.16ZM94.3799 130.16H98.7399V125.79H94.3799V130.16Z" fill="#A68D67"/>
<path d="M41.9787 60.2774C40.9287 62.0921 40.9326 64.2833 41.9827 65.8445C42.1927 66.1536 42.688 66.6647 42.9495 66.8391C43.1793 66.9896 43.1793 66.9817 43.001 67.3304C42.9257 67.481 42.9099 67.4889 42.791 67.4691C42.5968 67.4334 42.1848 67.5127 41.9074 67.6434C41.5785 67.798 41.2893 68.0912 41.1268 68.4319C41.0079 68.6816 41 68.7252 41 69.1333C41 69.5256 41.0119 69.5929 41.107 69.799C41.2615 70.1318 41.4359 70.3537 41.6974 70.5597L41.9232 70.738L41.9034 71.7366C41.8757 73.0085 41.943 73.6464 42.2323 74.7836C42.5493 76.0516 43.2784 77.4939 44.1739 78.6232C44.3205 78.8094 44.6929 79.2096 44.998 79.5147C46.583 81.0917 48.473 82.0467 50.7474 82.4072C51.2943 82.4944 52.6296 82.5301 53.1922 82.4706C55.4231 82.2329 57.3805 81.3334 59.1398 79.7326C59.2784 79.6098 59.7302 79.1145 59.9996 78.7975C60.796 77.8584 61.5132 76.4914 61.7985 75.378C61.8698 75.0887 61.8976 75.0333 62.0046 74.9699C62.2423 74.8312 62.2383 74.8668 62.2502 72.6796L62.2621 70.6786L62.171 70.5043C61.9966 70.1635 62.0085 70.1675 60.7208 70.1397C60.0947 70.1278 58.3988 70.1239 56.9486 70.1278C54.0481 70.1358 54.1194 70.1278 53.6083 70.3854C52.9188 70.7341 52.4077 71.376 52.273 72.0773C52.2016 72.43 52.2413 73.0679 52.3522 73.3889C52.5266 73.8802 52.9743 74.4349 53.4141 74.6885C53.5132 74.748 53.7073 74.8391 53.854 74.8946C54.1155 74.9936 54.1234 74.9936 55.6331 75.0174L57.1506 75.0372L56.8495 75.4414C55.8034 76.852 54.1591 77.6484 52.3126 77.6445C49.7252 77.6405 47.4547 75.7108 47.0347 73.1551C46.9753 72.7866 46.9753 71.8832 47.0347 71.5067C47.1813 70.5954 47.6092 69.7039 48.1759 69.1254C48.6315 68.6618 48.9644 68.6063 49.6023 68.8916C49.7806 68.9669 50.0382 69.058 50.1769 69.0937C51.8807 69.4939 53.2913 67.8455 52.6177 66.2487L52.5543 66.0981L52.8396 66.1219C53.2794 66.1615 53.7668 66.2526 54.1155 66.3636C54.5711 66.5062 55.2764 66.8668 55.6014 67.1164L55.8787 67.3304H56.3859H56.8931L58.066 66.1813C58.7118 65.5473 59.2943 64.949 59.3617 64.846C59.5083 64.6281 59.5241 64.4022 59.4092 64.216C59.2626 63.9782 58.3433 63.2452 57.6776 62.841C56.4136 62.0684 54.9753 61.5849 53.4736 61.4265C52.3047 61.2997 50.7157 61.4661 49.6063 61.8306L49.3685 61.9059L49.1665 61.7117C48.8257 61.3868 48.4413 61.1649 48.0055 61.054C47.7242 60.9787 47.0704 60.9708 46.7573 61.0342C46.4126 61.1015 45.7905 61.4344 45.4854 61.7078C45.2318 61.9376 44.7444 62.6033 44.7444 62.7222C44.7444 62.7499 44.6493 62.6825 44.5305 62.5716C44.4116 62.4606 44.1025 62.215 43.845 62.0327C43.2269 61.5849 42.9931 61.3829 42.7355 61.0738C42.4978 60.7845 42.3512 60.4993 42.2798 60.1981C42.2561 60.0911 42.2125 60 42.1848 60C42.157 60 42.0659 60.1228 41.9787 60.2774ZM47.8787 61.9852C48.794 62.2467 49.2734 63.2491 48.9882 64.2992C48.8614 64.7549 48.477 65.4245 48.1759 65.7019L48.0728 65.797V65.6028C48.0728 65.1432 47.8311 64.6756 47.4349 64.3705C47.2487 64.2279 47.0426 64.1328 47.0426 64.1882C47.0426 64.2001 47.1575 64.3309 47.2962 64.4854C47.4349 64.636 47.6013 64.8539 47.6608 64.9649C47.7638 65.1471 47.7757 65.2185 47.7876 65.6068L47.8034 66.0466L47.6172 66.2804C47.2289 66.7836 47.1496 66.95 47.2328 67.0847C47.2804 67.16 47.4428 67.0927 48.5285 66.5498C49.7608 65.9317 49.9035 65.8841 50.4899 65.8841C50.8861 65.8841 50.9693 65.896 51.1318 65.9753C51.3933 66.106 51.6429 66.3398 51.7579 66.5617C51.9639 66.9659 51.8411 67.6276 51.5122 67.9049C51.2546 68.1229 51.0882 68.1823 50.7276 68.1823C50.4225 68.1783 50.3472 68.1625 49.8955 67.9882C49.111 67.687 48.7227 67.6949 48.1045 68.0119C47.1417 68.5072 46.3373 69.7831 46.056 71.2492C45.9807 71.6534 46.0084 71.6415 45.1803 71.6771C44.7484 71.693 44.4948 71.6811 44.1659 71.6335C43.7023 71.5662 42.8821 71.3284 42.8148 71.2452C42.791 71.2175 42.7633 70.9956 42.7514 70.7579C42.7197 70.1556 42.6721 70.0288 42.4225 69.9059C41.9747 69.684 41.8123 69.4622 41.8123 69.0778C41.8123 68.6023 42.1768 68.2734 42.6285 68.3408C43.0208 68.3963 43.2467 68.7529 43.3378 69.4384C43.3695 69.684 43.3972 69.902 43.3972 69.9218C43.3972 69.9456 43.4091 69.9456 43.4329 69.9218C43.4527 69.902 43.5161 69.5573 43.5716 69.1531C43.631 68.7489 43.7222 68.2695 43.7776 68.0832C43.8331 67.897 44.1065 67.2749 44.3878 66.6964C44.9703 65.4998 45.1407 65.0283 45.2596 64.2992C45.3745 63.5899 45.4379 63.3601 45.6281 62.9916C45.846 62.5716 46.163 62.2546 46.5553 62.0723C47.007 61.8544 47.3557 61.8306 47.8787 61.9852ZM53.5251 62.421C55.1378 62.5795 56.7108 63.2214 58.0263 64.2556C58.1967 64.3903 58.3354 64.5171 58.3354 64.5448C58.3354 64.5686 58.276 64.636 58.2086 64.6954C58.1373 64.7549 57.7054 65.1669 57.2537 65.6107C56.802 66.0545 56.4136 66.4191 56.3938 66.4191C56.3701 66.4191 56.2314 66.3319 56.0768 66.2209C55.4072 65.7415 54.2779 65.2937 53.3745 65.1511C53.0654 65.1035 51.9282 65.0877 51.7103 65.1313C51.6073 65.1511 51.5043 65.1352 51.3537 65.0798C50.9059 64.9173 50.2442 64.8698 49.8599 64.9767C49.7767 65.0005 49.7687 64.9966 49.7925 64.9292C49.9629 64.4933 50.0263 64.1605 50.0263 63.7048C50.0263 63.3799 50.0025 63.1659 49.9629 63.0312C49.9272 62.9242 49.9114 62.8252 49.9272 62.8093C49.9708 62.7697 50.4344 62.6271 50.7474 62.5518C51.4448 62.3893 52.6494 62.3338 53.5251 62.421ZM42.2997 63.1105C42.3353 63.2373 42.3551 63.3522 42.3472 63.3641C42.3353 63.372 42.3155 63.3244 42.3036 63.2531C42.2878 63.1858 42.264 63.1184 42.2442 63.1065C42.2283 63.0986 42.2204 63.0629 42.2323 63.0352C42.2442 63.0035 42.2323 62.9678 42.2085 62.952C42.1134 62.8925 42.1729 63.1382 42.5136 64.2199C42.6087 64.5171 42.9218 65.1749 43.1001 65.4483C43.2625 65.6979 43.4487 65.9238 43.4844 65.9119C43.5042 65.9079 43.5121 65.9198 43.4963 65.9436C43.4725 65.9792 43.528 66.003 43.6112 65.9872C43.631 65.9832 43.6271 66.007 43.5954 66.0387C43.5518 66.0941 43.528 66.0941 43.3893 66.0109C43.2982 65.9634 43.104 65.793 42.9535 65.6305C42.3314 64.9649 42.054 63.998 42.1531 62.8331C42.1848 62.4448 42.1848 62.4408 42.2125 62.6548C42.2244 62.7737 42.268 62.9797 42.2997 63.1105ZM61.0417 71.0986C61.0893 71.1264 61.1408 71.166 61.1566 71.1898C61.1725 71.2135 61.1883 71.8713 61.1883 72.6479V74.0664L58.5256 74.0744C54.3651 74.0902 54.3928 74.0942 54.1274 73.9912C53.8104 73.8683 53.4973 73.5751 53.3349 73.2423C53.0139 72.5924 53.212 71.7683 53.7906 71.3443C54.1987 71.0431 54.0045 71.059 57.6737 71.055C60.0709 71.055 60.9783 71.0669 61.0417 71.0986ZM43.0406 71.59C43.4765 71.8079 44.8673 72.0456 45.7073 72.0456H45.9728V72.4934C45.9728 73.6861 46.373 74.8708 47.1377 75.9446C47.6608 76.6776 48.1838 77.1611 49.0159 77.6801C49.2497 77.8267 49.4399 77.9615 49.4399 77.9773C49.4399 77.9971 49.3487 78.1873 49.2338 78.4052C48.9327 78.9877 48.7425 79.5345 48.691 79.9506L48.6712 80.1091L48.7464 80.01C48.7861 79.9545 48.8297 79.8713 48.8415 79.8238C48.8574 79.7762 48.9565 79.5464 49.0674 79.3087C49.1783 79.0749 49.3567 78.6985 49.4636 78.4726C49.5667 78.2507 49.6618 78.0684 49.6697 78.0684C49.6776 78.0684 49.8163 78.1239 49.9787 78.1913C50.8703 78.5558 52.0154 78.7262 52.9069 78.6271C54.4404 78.4488 55.8312 77.8347 56.9288 76.852L57.325 76.4954L57.6024 76.7331C57.7569 76.8678 57.9114 77.0065 57.951 77.0461C58.0263 77.1254 58.0977 77.1412 58.0977 77.0818C58.0977 77.0105 57.7054 76.5707 57.5667 76.4835C57.4875 76.4359 57.4241 76.3884 57.4241 76.3765C57.4241 76.3646 57.5152 76.2299 57.6261 76.0793C57.8758 75.7465 58.1095 75.3899 58.2165 75.1759L58.2958 75.0174H59.5875C60.6653 75.0174 60.8753 75.0253 60.8594 75.0729C60.8475 75.1006 60.8 75.2552 60.7524 75.4097C60.3839 76.6499 59.5083 78.0367 58.478 79.0115C57.7014 79.7406 56.6118 80.4538 55.7361 80.7985L55.534 80.8778L55.5102 80.4696C55.4706 79.8198 55.1972 78.9124 55.0229 78.8451C54.9713 78.8253 54.9634 78.8371 54.9832 78.9085C55.1695 79.5464 55.2963 80.6242 55.213 80.8976C55.1774 81.0283 55.1021 81.064 54.4919 81.2225C53.6955 81.4285 53.1883 81.4919 52.273 81.4919C51.3656 81.4919 50.9614 81.4483 50.1254 81.2582C49.317 81.068 48.7306 80.858 47.9342 80.4578C47.11 80.0457 46.5711 79.6692 45.7786 78.956L45.6875 78.8688L45.7984 78.6192C45.945 78.2824 46.2858 77.7198 46.5513 77.3711C46.7811 77.0739 46.797 77.0382 46.7098 77.0382C46.5354 77.0382 45.9926 77.6484 45.6598 78.219L45.4497 78.5835L45.2635 78.3775C44.6216 77.6643 44.2412 77.1095 43.8133 76.2497C43.1595 74.9461 42.8901 73.8921 42.8029 72.3428C42.7514 71.4156 42.7474 71.479 42.8544 71.5147C42.9019 71.5266 42.9852 71.5622 43.0406 71.59Z" fill="#A68D67"/>
</g>
<defs>
<clipPath id="clip0_937_253">
<rect width="102.74" height="134.16" fill="white"/>
</clipPath>
</defs>
</svg>
