<svg width="130" height="108" viewBox="0 0 130 108" fill="none" xmlns="http://www.w3.org/2000/svg">
<g clip-path="url(#clip0_937_233)">
<path d="M17.0298 9.37012H12.8398V13.5601H17.0298V9.37012Z" fill="#A68D67"/>
<path d="M25.4 9.37012H21.21V13.5601H25.4V9.37012Z" fill="#A68D67"/>
<path d="M33.7798 9.37012H29.5898V13.5601H33.7798V9.37012Z" fill="#A68D67"/>
<path d="M87.5703 78.0801H83.5703V89.4301H87.5703V78.0801Z" fill="#A68D67"/>
<path d="M90.9996 81.7598H79.8896V85.7598H90.9996V81.7598Z" fill="#A68D67"/>
<path d="M67 67.0801C63.4399 67.0801 59.9598 66.0244 56.9997 64.0465C54.0397 62.0687 51.7326 59.2575 50.3702 55.9684C49.0078 52.6793 48.6513 49.0601 49.3459 45.5685C50.0404 42.0768 51.7547 38.8695 54.2721 36.3522C56.7894 33.8348 59.9967 32.1205 63.4884 31.426C66.98 30.7314 70.5992 31.0879 73.8883 32.4503C77.1774 33.8126 79.9886 36.1197 81.9665 39.0798C83.9443 42.0399 85 45.52 85 49.0801C85 51.4439 84.5344 53.7845 83.6298 55.9684C82.7253 58.1523 81.3994 60.1366 79.7279 61.808C78.0565 63.4795 76.0722 64.8053 73.8883 65.7099C71.7044 66.6145 69.3638 67.0801 67 67.0801ZM67 35.0801C64.2311 35.0801 61.5243 35.9012 59.222 37.4395C56.9197 38.9779 55.1253 41.1644 54.0657 43.7225C53.0061 46.2807 52.7288 49.0956 53.269 51.8113C53.8092 54.5271 55.1426 57.0216 57.1005 58.9796C59.0585 60.9375 61.553 62.2709 64.2687 62.8111C66.9845 63.3513 69.7994 63.074 72.3576 62.0144C74.9157 60.9548 77.1022 59.1604 78.6406 56.8581C80.1789 54.5558 81 51.849 81 49.0801C81 45.3671 79.525 41.8061 76.8995 39.1806C74.274 36.5551 70.713 35.0801 67 35.0801Z" fill="#A68D67"/>
<path d="M69.3903 49.3904H61.5303V47.8604V40.8604H63.0603H69.4203C70.5554 40.8604 71.644 41.3113 72.4467 42.1139C73.2493 42.9166 73.7003 44.0052 73.7003 45.1404C73.7003 46.2755 73.2493 47.3641 72.4467 48.1668C71.644 48.9694 70.5554 49.4203 69.4203 49.4203L69.3903 49.3904ZM64.5003 46.3904H69.3903C69.7298 46.3904 70.0553 46.2555 70.2954 46.0154C70.5354 45.7754 70.6703 45.4498 70.6703 45.1104C70.6703 44.7709 70.5354 44.4453 70.2954 44.2053C70.0553 43.9652 69.7298 43.8304 69.3903 43.8304H64.5003V46.3904Z" fill="#A68D67"/>
<path d="M69.67 56.3299H61.54V54.7999V46.4199H63.08H69.71C70.9902 46.4226 72.2172 46.9323 73.1224 47.8375C74.0277 48.7427 74.5374 49.9697 74.54 51.2499V51.5299C74.5361 52.1651 74.407 52.7932 74.16 53.3783C73.913 53.9635 73.553 54.4942 73.1006 54.94C72.6483 55.3859 72.1124 55.7382 71.5238 55.9767C70.9351 56.2151 70.3052 56.3352 69.67 56.3299ZM64.5 53.3299H69.67C70.1554 53.3299 70.6209 53.1371 70.964 52.7939C71.3072 52.4507 71.5 51.9853 71.5 51.4999V51.2199C71.5 50.7346 71.3072 50.2691 70.964 49.9259C70.6209 49.5827 70.1554 49.3899 69.67 49.3899H64.5V53.3299Z" fill="#A68D67"/>
<path d="M66.4199 39H63.4199V42.33H66.4199V39Z" fill="#A68D67"/>
<path d="M71.1699 39H68.1699V42.33H71.1699V39Z" fill="#A68D67"/>
<path d="M66.4199 54.8301H63.4199V58.1601H66.4199V54.8301Z" fill="#A68D67"/>
<path d="M71.1699 54.8301H68.1699V58.1601H71.1699V54.8301Z" fill="#A68D67"/>
<path d="M126 108H4C2.93913 108 1.92172 107.579 1.17157 106.828C0.421427 106.078 0 105.061 0 104V18H126C127.061 18 128.078 18.4214 128.828 19.1716C129.579 19.9217 130 20.9391 130 22V104C130 105.061 129.579 106.078 128.828 106.828C128.078 107.579 127.061 108 126 108ZM4 22V104H126V22H4Z" fill="#A68D67"/>
<path d="M46 22H0V4C0 2.93913 0.421427 1.92172 1.17157 1.17157C1.92172 0.421427 2.93913 0 4 0L42 0C43.0609 0 44.0783 0.421427 44.8284 1.17157C45.5786 1.92172 46 2.93913 46 4V22ZM4 18H42V4H4V18Z" fill="#A68D67"/>
<path d="M130 22H83.49V18H126V4H63.75V0H126C127.061 0 128.078 0.421427 128.828 1.17157C129.579 1.92172 130 2.93913 130 4V22Z" fill="#A68D67"/>
<path d="M59.2602 0H55.2402V4H59.2602V0Z" fill="#A68D67"/>
<path d="M64 90.0801H29V77.0801H64V90.0801ZM33 86.0801H60V81.0801H33V86.0801Z" fill="#A68D67"/>
</g>
<defs>
<clipPath id="clip0_937_233">
<rect width="130" height="108" fill="white"/>
</clipPath>
</defs>
</svg>
