<svg width="96" height="98" viewBox="0 0 96 98" fill="none" xmlns="http://www.w3.org/2000/svg">
<g clip-path="url(#clip0_937_232)">
<path d="M23.0004 63.1407C16.9004 63.2893 10.9913 61.0085 6.57294 56.8002C2.15458 52.5919 -0.41106 46.8007 -0.559582 40.7007C-0.708103 34.6008 1.57267 28.6916 5.78098 24.2733C9.9893 19.8549 15.7804 17.2893 21.8804 17.1407C23.1687 14.645 24.7828 12.3314 26.6804 10.2607L29.6304 12.9607C27.7198 15.0416 26.1382 17.4022 24.9404 19.9607C24.779 20.3045 24.5231 20.5952 24.2026 20.7988C23.882 21.0025 23.5102 21.1107 23.1304 21.1107H23.0004C17.9573 21.1107 13.1208 23.1141 9.55478 26.6801C5.98878 30.2461 3.98542 35.0827 3.98542 40.1257C3.98542 45.1688 5.98878 50.0054 9.55478 53.5714C13.1208 57.1374 17.9573 59.1407 23.0004 59.1407V63.1407Z" fill="#A68D67"/>
<path d="M32.7705 10.0001L30.2705 6.88012C31.8308 5.63842 33.5049 4.5469 35.2705 3.62012L37.1005 7.18012C35.5737 7.98533 34.1243 8.92931 32.7705 10.0001Z" fill="#A68D67"/>
<path d="M78.8908 63.1403V59.1403C82.2928 59.0996 85.5457 57.738 87.9623 55.3432C90.3788 52.9483 91.7698 49.7078 91.8412 46.3064C91.9126 42.9049 90.6589 39.6089 88.3449 37.1147C86.031 34.6206 82.8381 33.1237 79.4408 32.9403C78.9363 32.9178 78.459 32.7053 78.1047 32.3454C77.7505 31.9856 77.5454 31.505 77.5308 31.0003C77.4385 26.6864 76.3357 22.4544 74.311 18.6441C72.2863 14.8338 69.3961 11.5515 65.8727 9.06083C62.3492 6.57021 58.2908 4.9407 54.0233 4.30323C49.7558 3.66575 45.3983 4.03807 41.3008 5.39028L40.0508 1.59028C44.5981 0.0901344 49.427 -0.356611 54.1724 0.283811C58.9178 0.924233 63.4556 2.63506 67.4426 5.28697C71.4296 7.93889 74.7616 11.4625 77.1866 15.5914C79.6117 19.7203 81.0664 24.3465 81.4408 29.1203C85.6713 29.8038 89.4913 32.05 92.1454 35.4147C94.7994 38.7794 96.0942 43.0175 95.7737 47.2909C95.4532 51.5643 93.5407 55.5618 90.4145 58.493C87.2883 61.4241 83.176 63.0754 78.8908 63.1203V63.1403Z" fill="#A68D67"/>
<path d="M51 55.0703H47V85.0003H51V55.0703Z" fill="#A68D67"/>
<path d="M49.2401 87.2498C48.7119 87.2503 48.2051 87.0418 47.8301 86.6698L37.5801 76.4198L40.4101 73.5898L49.2401 82.4198L57.5901 74.0798L60.4201 76.8998L50.6601 86.6698C50.4732 86.8552 50.2516 87.0019 50.0079 87.1014C49.7642 87.2009 49.5033 87.2514 49.2401 87.2498Z" fill="#A68D67"/>
<path d="M82 93.0703H71V97.0703H82V93.0703Z" fill="#A68D67"/>
<path d="M66 93.0703H62V97.0703H66V93.0703Z" fill="#A68D67"/>
<path d="M56.79 93.0703H17V97.0703H56.79V93.0703Z" fill="#A68D67"/>
<path d="M39.9787 26.2774C38.9287 28.0921 38.9326 30.2833 39.9827 31.8445C40.1927 32.1536 40.688 32.6647 40.9495 32.8391C41.1793 32.9896 41.1793 32.9817 41.001 33.3304C40.9257 33.481 40.9099 33.4889 40.791 33.4691C40.5968 33.4334 40.1848 33.5127 39.9074 33.6434C39.5785 33.798 39.2893 34.0912 39.1268 34.4319C39.0079 34.6816 39 34.7252 39 35.1333C39 35.5256 39.0119 35.5929 39.107 35.799C39.2615 36.1318 39.4359 36.3537 39.6974 36.5597L39.9232 36.738L39.9034 37.7366C39.8757 39.0085 39.943 39.6464 40.2323 40.7836C40.5493 42.0516 41.2784 43.4939 42.1739 44.6232C42.3205 44.8094 42.6929 45.2096 42.998 45.5147C44.583 47.0917 46.473 48.0467 48.7474 48.4072C49.2943 48.4944 50.6296 48.5301 51.1922 48.4706C53.4231 48.2329 55.3805 47.3334 57.1398 45.7326C57.2784 45.6098 57.7302 45.1145 57.9996 44.7975C58.796 43.8584 59.5132 42.4914 59.7985 41.378C59.8698 41.0887 59.8976 41.0333 60.0046 40.9699C60.2423 40.8312 60.2383 40.8668 60.2502 38.6796L60.2621 36.6786L60.171 36.5043C59.9966 36.1635 60.0085 36.1675 58.7208 36.1397C58.0947 36.1278 56.3988 36.1239 54.9486 36.1278C52.0481 36.1358 52.1194 36.1278 51.6083 36.3854C50.9188 36.7341 50.4077 37.376 50.273 38.0773C50.2016 38.43 50.2413 39.0679 50.3522 39.3889C50.5266 39.8802 50.9743 40.4349 51.4141 40.6885C51.5132 40.748 51.7073 40.8391 51.854 40.8946C52.1155 40.9936 52.1234 40.9936 53.6331 41.0174L55.1506 41.0372L54.8495 41.4414C53.8034 42.852 52.1591 43.6484 50.3126 43.6445C47.7252 43.6405 45.4547 41.7108 45.0347 39.1551C44.9753 38.7866 44.9753 37.8832 45.0347 37.5067C45.1813 36.5954 45.6092 35.7039 46.1759 35.1254C46.6315 34.6618 46.9644 34.6063 47.6023 34.8916C47.7806 34.9669 48.0382 35.058 48.1769 35.0937C49.8807 35.4939 51.2913 33.8455 50.6177 32.2487L50.5543 32.0981L50.8396 32.1219C51.2794 32.1615 51.7668 32.2526 52.1155 32.3636C52.5711 32.5062 53.2764 32.8668 53.6014 33.1164L53.8787 33.3304H54.3859H54.8931L56.066 32.1813C56.7118 31.5473 57.2943 30.949 57.3617 30.846C57.5083 30.6281 57.5241 30.4022 57.4092 30.216C57.2626 29.9782 56.3433 29.2452 55.6776 28.841C54.4136 28.0684 52.9753 27.5849 51.4736 27.4265C50.3047 27.2997 48.7157 27.4661 47.6063 27.8306L47.3685 27.9059L47.1665 27.7117C46.8257 27.3868 46.4413 27.1649 46.0055 27.054C45.7242 26.9787 45.0704 26.9708 44.7573 27.0342C44.4126 27.1015 43.7905 27.4344 43.4854 27.7078C43.2318 27.9376 42.7444 28.6033 42.7444 28.7222C42.7444 28.7499 42.6493 28.6825 42.5305 28.5716C42.4116 28.4606 42.1025 28.215 41.845 28.0327C41.2269 27.5849 40.9931 27.3829 40.7355 27.0738C40.4978 26.7845 40.3512 26.4993 40.2798 26.1981C40.2561 26.0911 40.2125 26 40.1848 26C40.157 26 40.0659 26.1228 39.9787 26.2774ZM45.8787 27.9852C46.794 28.2467 47.2734 29.2491 46.9882 30.2992C46.8614 30.7549 46.477 31.4245 46.1759 31.7019L46.0728 31.797V31.6028C46.0728 31.1432 45.8311 30.6756 45.4349 30.3705C45.2487 30.2279 45.0426 30.1328 45.0426 30.1882C45.0426 30.2001 45.1575 30.3309 45.2962 30.4854C45.4349 30.636 45.6013 30.8539 45.6608 30.9649C45.7638 31.1471 45.7757 31.2185 45.7876 31.6068L45.8034 32.0466L45.6172 32.2804C45.2289 32.7836 45.1496 32.95 45.2328 33.0847C45.2804 33.16 45.4428 33.0927 46.5285 32.5498C47.7608 31.9317 47.9035 31.8841 48.4899 31.8841C48.8861 31.8841 48.9693 31.896 49.1318 31.9753C49.3933 32.106 49.6429 32.3398 49.7579 32.5617C49.9639 32.9659 49.8411 33.6276 49.5122 33.9049C49.2546 34.1229 49.0882 34.1823 48.7276 34.1823C48.4225 34.1783 48.3472 34.1625 47.8955 33.9882C47.111 33.687 46.7227 33.6949 46.1045 34.0119C45.1417 34.5072 44.3373 35.7831 44.056 37.2492C43.9807 37.6534 44.0084 37.6415 43.1803 37.6771C42.7484 37.693 42.4948 37.6811 42.1659 37.6335C41.7023 37.5662 40.8821 37.3284 40.8148 37.2452C40.791 37.2175 40.7633 36.9956 40.7514 36.7579C40.7197 36.1556 40.6721 36.0288 40.4225 35.9059C39.9747 35.684 39.8123 35.4622 39.8123 35.0778C39.8123 34.6023 40.1768 34.2734 40.6285 34.3408C41.0208 34.3963 41.2467 34.7529 41.3378 35.4384C41.3695 35.684 41.3972 35.902 41.3972 35.9218C41.3972 35.9456 41.4091 35.9456 41.4329 35.9218C41.4527 35.902 41.5161 35.5573 41.5716 35.1531C41.631 34.7489 41.7222 34.2695 41.7776 34.0832C41.8331 33.897 42.1065 33.2749 42.3878 32.6964C42.9703 31.4998 43.1407 31.0283 43.2596 30.2992C43.3745 29.5899 43.4379 29.3601 43.6281 28.9916C43.846 28.5716 44.163 28.2546 44.5553 28.0723C45.007 27.8544 45.3557 27.8306 45.8787 27.9852ZM51.5251 28.421C53.1378 28.5795 54.7108 29.2214 56.0263 30.2556C56.1967 30.3903 56.3354 30.5171 56.3354 30.5448C56.3354 30.5686 56.276 30.636 56.2086 30.6954C56.1373 30.7549 55.7054 31.1669 55.2537 31.6107C54.802 32.0545 54.4136 32.4191 54.3938 32.4191C54.3701 32.4191 54.2314 32.3319 54.0768 32.2209C53.4072 31.7415 52.2779 31.2937 51.3745 31.1511C51.0654 31.1035 49.9282 31.0877 49.7103 31.1313C49.6073 31.1511 49.5043 31.1352 49.3537 31.0798C48.9059 30.9173 48.2442 30.8698 47.8599 30.9767C47.7767 31.0005 47.7687 30.9966 47.7925 30.9292C47.9629 30.4933 48.0263 30.1605 48.0263 29.7048C48.0263 29.3799 48.0025 29.1659 47.9629 29.0312C47.9272 28.9242 47.9114 28.8252 47.9272 28.8093C47.9708 28.7697 48.4344 28.6271 48.7474 28.5518C49.4448 28.3893 50.6494 28.3338 51.5251 28.421ZM40.2997 29.1105C40.3353 29.2373 40.3551 29.3522 40.3472 29.3641C40.3353 29.372 40.3155 29.3244 40.3036 29.2531C40.2878 29.1858 40.264 29.1184 40.2442 29.1065C40.2283 29.0986 40.2204 29.0629 40.2323 29.0352C40.2442 29.0035 40.2323 28.9678 40.2085 28.952C40.1134 28.8925 40.1729 29.1382 40.5136 30.2199C40.6087 30.5171 40.9218 31.1749 41.1001 31.4483C41.2625 31.6979 41.4487 31.9238 41.4844 31.9119C41.5042 31.9079 41.5121 31.9198 41.4963 31.9436C41.4725 31.9792 41.528 32.003 41.6112 31.9872C41.631 31.9832 41.6271 32.007 41.5954 32.0387C41.5518 32.0941 41.528 32.0941 41.3893 32.0109C41.2982 31.9634 41.104 31.793 40.9535 31.6305C40.3314 30.9649 40.054 29.998 40.1531 28.8331C40.1848 28.4448 40.1848 28.4408 40.2125 28.6548C40.2244 28.7737 40.268 28.9797 40.2997 29.1105ZM59.0417 37.0986C59.0893 37.1264 59.1408 37.166 59.1566 37.1898C59.1725 37.2135 59.1883 37.8713 59.1883 38.6479V40.0664L56.5256 40.0744C52.3651 40.0902 52.3928 40.0942 52.1274 39.9912C51.8104 39.8683 51.4973 39.5751 51.3349 39.2423C51.0139 38.5924 51.212 37.7683 51.7906 37.3443C52.1987 37.0431 52.0045 37.059 55.6737 37.055C58.0709 37.055 58.9783 37.0669 59.0417 37.0986ZM41.0406 37.59C41.4765 37.8079 42.8673 38.0456 43.7073 38.0456H43.9728V38.4934C43.9728 39.6861 44.373 40.8708 45.1377 41.9446C45.6608 42.6776 46.1838 43.1611 47.0159 43.6801C47.2497 43.8267 47.4399 43.9615 47.4399 43.9773C47.4399 43.9971 47.3487 44.1873 47.2338 44.4052C46.9327 44.9877 46.7425 45.5345 46.691 45.9506L46.6712 46.1091L46.7464 46.01C46.7861 45.9545 46.8297 45.8713 46.8415 45.8238C46.8574 45.7762 46.9565 45.5464 47.0674 45.3087C47.1783 45.0749 47.3567 44.6985 47.4636 44.4726C47.5667 44.2507 47.6618 44.0684 47.6697 44.0684C47.6776 44.0684 47.8163 44.1239 47.9787 44.1913C48.8703 44.5558 50.0154 44.7262 50.9069 44.6271C52.4404 44.4488 53.8312 43.8347 54.9288 42.852L55.325 42.4954L55.6024 42.7331C55.7569 42.8678 55.9114 43.0065 55.951 43.0461C56.0263 43.1254 56.0977 43.1412 56.0977 43.0818C56.0977 43.0105 55.7054 42.5707 55.5667 42.4835C55.4875 42.4359 55.4241 42.3884 55.4241 42.3765C55.4241 42.3646 55.5152 42.2299 55.6261 42.0793C55.8758 41.7465 56.1095 41.3899 56.2165 41.1759L56.2958 41.0174H57.5875C58.6653 41.0174 58.8753 41.0253 58.8594 41.0729C58.8475 41.1006 58.8 41.2552 58.7524 41.4097C58.3839 42.6499 57.5083 44.0367 56.478 45.0115C55.7014 45.7406 54.6118 46.4538 53.7361 46.7985L53.534 46.8778L53.5102 46.4696C53.4706 45.8198 53.1972 44.9124 53.0229 44.8451C52.9713 44.8253 52.9634 44.8371 52.9832 44.9085C53.1695 45.5464 53.2963 46.6242 53.213 46.8976C53.1774 47.0283 53.1021 47.064 52.4919 47.2225C51.6955 47.4285 51.1883 47.4919 50.273 47.4919C49.3656 47.4919 48.9614 47.4483 48.1254 47.2582C47.317 47.068 46.7306 46.858 45.9342 46.4578C45.11 46.0457 44.5711 45.6692 43.7786 44.956L43.6875 44.8688L43.7984 44.6192C43.945 44.2824 44.2858 43.7198 44.5513 43.3711C44.7811 43.0739 44.797 43.0382 44.7098 43.0382C44.5354 43.0382 43.9926 43.6484 43.6598 44.219L43.4497 44.5835L43.2635 44.3775C42.6216 43.6643 42.2412 43.1095 41.8133 42.2497C41.1595 40.9461 40.8901 39.8921 40.8029 38.3428C40.7514 37.4156 40.7474 37.479 40.8544 37.5147C40.9019 37.5266 40.9852 37.5622 41.0406 37.59Z" fill="#A68D67"/>
<path d="M52.4205 37.5706C51.9807 37.7925 51.7628 38.1452 51.7588 38.6405C51.7588 39.1397 51.9886 39.4963 52.4522 39.7143C52.7296 39.849 53.1575 39.8411 53.4507 39.6984C53.843 39.5082 54.0768 39.1556 54.1085 38.7157C54.1362 38.3314 54.0411 38.0857 53.7638 37.8044C53.3834 37.428 52.8881 37.3408 52.4205 37.5706ZM53.2368 37.9946C53.4468 38.1254 53.6013 38.3591 53.6013 38.5533C53.6013 38.7118 53.5062 38.9456 53.3913 39.0684C53.0109 39.4765 52.3333 39.2507 52.1709 38.6603C52.1194 38.482 52.1471 38.3512 52.2779 38.1531C52.4839 37.8401 52.8801 37.7727 53.2368 37.9946Z" fill="#A68D67"/>
</g>
<defs>
<clipPath id="clip0_937_232">
<rect width="96" height="97.07" fill="white"/>
</clipPath>
</defs>
</svg>
