<?xml version="1.0" encoding="UTF-8"?>
<svg id="Layer_2" data-name="Layer 2" xmlns="http://www.w3.org/2000/svg" viewBox="0 0 1782.92 752.04">
  <defs>
    <style>
      .cls-1 {
        fill: #fff;
        stroke-width: 0px;
      }
    </style>
  </defs>
  <g id="Layer_1-2" data-name="Layer 1">
    <g>
      <path class="cls-1" d="M11.88,179.87l3.85,3.04-.34,17.01c-.47,21.67.67,32.53,5.6,51.9,5.4,21.6,17.82,46.17,33.07,65.4,2.5,3.17,8.84,9.99,14.04,15.19,27,26.86,59.19,43.13,97.94,49.27,9.31,1.48,32.06,2.09,41.64,1.08,38-4.05,71.34-19.37,101.31-46.64,2.36-2.09,10.06-10.53,14.65-15.93,13.57-16,25.78-39.28,30.64-58.25,1.21-4.93,1.69-5.87,3.51-6.95,4.05-2.36,3.98-1.75,4.18-39.01l.2-34.09-1.55-2.97c-2.97-5.8-2.77-5.74-24.7-6.21-10.66-.2-39.55-.27-64.26-.2-49.41.14-48.19,0-56.9,4.39-11.74,5.94-20.45,16.87-22.75,28.82-1.21,6.01-.54,16.87,1.35,22.34,2.97,8.37,10.6,17.82,18.09,22.14,1.69,1.01,4.99,2.56,7.49,3.51,4.45,1.69,4.59,1.69,30.31,2.09l25.85.34-5.13,6.88c-17.82,24.03-45.83,37.6-77.28,37.53-44.07-.07-82.75-32.94-89.9-76.47-1.01-6.28-1.01-21.67,0-28.08,2.5-15.52,9.79-30.71,19.44-40.56,7.76-7.9,13.43-8.84,24.3-3.98,3.04,1.28,7.42,2.83,9.79,3.44,29.02,6.82,53.05-21.26,41.58-48.46l-1.08-2.56,4.86.41c7.49.67,15.79,2.23,21.73,4.12,7.76,2.43,19.78,8.57,25.31,12.82l4.72,3.65h17.28l19.98-19.57c11-10.8,20.92-20.99,22.07-22.75,2.5-3.71,2.77-7.56.81-10.73-2.5-4.05-18.16-16.54-29.5-23.42-21.53-13.16-46.03-21.4-71.61-24.1-19.91-2.16-46.98.67-65.88,6.88l-4.05,1.28-3.44-3.31c-5.8-5.53-12.35-9.31-19.78-11.2-4.79-1.28-15.93-1.42-21.26-.34-5.87,1.15-16.47,6.82-21.67,11.47-4.32,3.91-12.62,15.25-12.62,17.28,0,.47-1.62-.67-3.64-2.56-2.02-1.89-7.29-6.07-11.68-9.18-10.53-7.63-14.51-11.07-18.9-16.33-4.05-4.93-6.55-9.79-7.76-14.92-.41-1.82-1.15-3.37-1.62-3.37s-2.02,2.09-3.51,4.72c-17.89,30.91-17.82,68.24.07,94.83,3.58,5.26,12.01,13.97,16.47,16.94,3.91,2.56,3.91,2.43.88,8.37-1.28,2.56-1.55,2.7-3.58,2.36-3.31-.61-10.33.74-15.05,2.97-5.6,2.63-10.53,7.63-13.3,13.43-2.02,4.25-2.16,4.99-2.16,11.95s.2,7.83,1.82,11.34c2.63,5.67,5.6,9.45,10.06,12.96ZM223.61,238.33c-5.4-2.09-10.73-7.09-13.5-12.76-5.47-11.07-2.09-25.11,7.76-32.33,6.95-5.13,3.64-4.86,66.15-4.93,40.83,0,56.29.2,57.37.74.81.47,1.69,1.15,1.96,1.55.27.41.54,11.61.54,24.84v24.16l-45.36.14c-70.87.27-70.4.34-74.92-1.42ZM104.55,271.6c8.91,12.49,17.82,20.72,31.99,29.56,3.98,2.5,7.22,4.79,7.22,5.06,0,.34-1.55,3.58-3.51,7.29-5.13,9.92-8.37,19.24-9.25,26.32l-.34,2.7,1.28-1.69c.67-.94,1.42-2.36,1.62-3.17.27-.81,1.96-4.73,3.85-8.77,1.89-3.98,4.93-10.39,6.75-14.24,1.76-3.78,3.37-6.88,3.51-6.88s2.5.95,5.26,2.09c15.19,6.21,34.69,9.11,49.88,7.42,26.12-3.04,49.81-13.5,68.51-30.24l6.75-6.07,4.73,4.05c2.63,2.29,5.26,4.66,5.94,5.33,1.28,1.35,2.5,1.62,2.5.61,0-1.21-6.68-8.71-9.04-10.19-1.35-.81-2.43-1.62-2.43-1.82s1.55-2.5,3.44-5.06c4.25-5.67,8.23-11.74,10.06-15.39l1.35-2.7h22c18.36,0,21.94.14,21.67.95-.2.47-1.01,3.1-1.82,5.74-6.28,21.13-21.19,44.75-38.74,61.35-13.23,12.42-31.79,24.57-46.71,30.44l-3.44,1.35-.41-6.95c-.68-11.07-5.33-26.53-8.3-27.67-.88-.34-1.01-.13-.68,1.08,3.17,10.87,5.33,29.23,3.92,33.88-.61,2.23-1.89,2.83-12.28,5.53-13.57,3.51-22.21,4.59-37.8,4.59s-22.34-.74-36.58-3.98c-13.77-3.24-23.76-6.82-37.33-13.63-14.04-7.02-23.22-13.43-36.72-25.58l-1.55-1.49,1.89-4.25c2.5-5.74,8.3-15.32,12.82-21.26,3.91-5.06,4.18-5.67,2.7-5.67-2.97,0-12.22,10.39-17.89,20.11l-3.58,6.21-3.17-3.51c-10.93-12.15-17.41-21.6-24.7-36.24-11.14-22.21-15.73-40.16-17.21-66.55-.88-15.79-.94-14.71.88-14.11.81.2,2.23.81,3.17,1.28,7.42,3.71,31.12,7.76,45.42,7.76h4.52v7.63c0,20.32,6.82,40.5,19.84,58.79ZM149.77,83.96c2.9-7.42,3.98-13.09,3.98-20.86,0-5.54-.41-9.18-1.08-11.47-.61-1.82-.88-3.51-.61-3.78.74-.68,8.64-3.1,13.97-4.39,11.88-2.77,32.4-3.71,47.31-2.23,27.47,2.7,54.27,13.63,76.67,31.25,2.9,2.29,5.26,4.45,5.26,4.93,0,.41-1.01,1.55-2.16,2.56-1.21,1.01-8.57,8.03-16.27,15.59-7.69,7.56-14.31,13.77-14.65,13.77-.41,0-2.77-1.48-5.4-3.37-11.41-8.17-30.64-15.79-46.03-18.22-5.26-.81-24.64-1.08-28.35-.34-1.75.34-3.51.07-6.07-.88-7.63-2.77-18.9-3.58-25.45-1.76-1.42.4-1.55.34-1.15-.81ZM33.28,95.91c-10.6-11.34-15.32-27.81-13.63-47.65.54-6.61.54-6.68,1.01-3.04.2,2.02.95,5.53,1.48,7.76.61,2.16.94,4.12.81,4.32-.2.13-.54-.67-.74-1.89-.27-1.15-.67-2.29-1.01-2.5-.27-.14-.4-.74-.2-1.21.2-.54,0-1.15-.41-1.42-1.62-1.01-.61,3.17,5.2,21.6,1.62,5.06,6.95,16.27,9.99,20.92,2.77,4.25,5.94,8.1,6.55,7.9.34-.07.47.14.2.54-.41.61.54,1.01,1.96.74.34-.07.27.34-.27.88-.74.95-1.15.95-3.51-.47-1.55-.81-4.86-3.71-7.42-6.48ZM27.74,142.08c6.68.94,10.53,7.02,12.08,18.7.54,4.18,1.01,7.9,1.01,8.23,0,.4.2.4.61,0,.34-.34,1.42-6.21,2.36-13.09,1.01-6.88,2.56-15.05,3.51-18.22.94-3.17,5.6-13.77,10.39-23.62,9.92-20.38,12.82-28.42,14.85-40.83,1.96-12.08,3.04-16,6.28-22.27,3.71-7.15,9.11-12.55,15.79-15.66,7.69-3.71,13.63-4.12,22.54-1.48,15.59,4.45,23.76,21.53,18.9,39.42-2.16,7.76-8.71,19.17-13.84,23.89l-1.76,1.62v-3.31c0-7.83-4.12-15.79-10.87-20.99-3.17-2.43-6.68-4.05-6.68-3.11,0,.2,1.96,2.43,4.32,5.06,2.36,2.56,5.2,6.28,6.21,8.17,1.76,3.1,1.96,4.32,2.16,10.93l.27,7.49-3.17,3.98c-6.61,8.57-7.96,11.41-6.55,13.7.81,1.28,3.58.14,22.07-9.11,20.99-10.53,23.42-11.34,33.41-11.34,6.75,0,8.17.2,10.93,1.55,4.45,2.23,8.71,6.21,10.66,9.99,3.51,6.88,1.42,18.16-4.18,22.88-4.39,3.71-7.22,4.72-13.36,4.72-5.2-.07-6.48-.34-14.17-3.31-13.36-5.13-19.98-4.99-30.51.4-16.4,8.44-30.1,30.17-34.9,55.14-1.28,6.88-.81,6.68-14.92,7.29-7.36.27-11.68.07-17.28-.74-7.9-1.15-21.87-5.2-23.02-6.61-.4-.47-.88-4.25-1.08-8.3-.54-10.26-1.35-12.42-5.6-14.51-7.63-3.78-10.39-7.56-10.39-14.11,0-8.1,6.21-13.7,13.9-12.55Z"/>
      <path class="cls-1" d="M241,218c-6.8,3.43-10.16,8.88-10.23,16.53,0,7.71,3.55,13.23,10.72,16.59,4.29,2.08,10.9,1.96,15.43-.24,6.06-2.94,9.67-8.39,10.16-15.19.43-5.94-1.04-9.74-5.33-14.08-5.88-5.82-13.53-7.16-20.76-3.61ZM256.01,241.14c-5.88,6.31-16.35,2.82-18.86-6.31-.8-2.76-.37-4.78,1.65-7.84,3.18-4.84,9.31-5.88,14.82-2.45,3.25,2.02,5.63,5.63,5.63,8.63,0,2.45-1.47,6.06-3.25,7.96Z"/>
      <path class="cls-1" d="M479.48,151.82h-65.79v231.45h65.79v-231.45ZM464.73,368.51h-36.29v-201.95h36.29v201.95Z"/>
      <path class="cls-1" d="M479.48,66.9h-65.79v65.79h65.79v-65.79ZM464.73,117.94h-36.29v-36.29h36.29v36.29Z"/>
      <path class="cls-1" d="M609.41,153.83l145.8,146.22v83.21h65.79V66.9h-65.79v140.3l-139.44-140.3h-72.16v316.37h65.79v-229.43ZM594.66,368.51h-36.29V81.65h51.27l160.32,161.32V81.65h36.29v286.86h-36.29v-74.56l-175.3-175.81v250.37Z"/>
      <path class="cls-1" d="M1108.6,372.6c22.54-10.46,42.13-25.57,58.15-44.78l7.83-9.04v-101.07h-65.79v76.19c-9.29,8.79-19.94,15.74-31.68,20.68-12.63,5.31-26.34,8.01-40.76,8.01s-27.11-2.55-39.45-7.58c-12.36-5.02-23.27-12.08-32.45-20.97-9.18-8.88-16.53-19.36-21.84-31.15-5.26-11.65-7.93-24.37-7.93-37.8s2.67-26.14,7.93-37.8c5.31-11.78,12.66-22.25,21.84-31.14,9.17-8.88,20.09-15.94,32.45-20.97,12.36-5.03,25.63-7.58,39.45-7.58,14.69,0,28.93,2.92,42.33,8.68,13.32,5.73,25.02,14.17,34.77,25.06l4.97,5.55,48.51-44.32-4.94-5.44c-15.79-17.39-34.8-31.11-56.52-40.76-21.73-9.66-44.99-14.56-69.12-14.56-22.84,0-44.72,4.33-65.04,12.88-20.25,8.52-38.18,20.26-53.31,34.91-15.16,14.68-27.26,32.17-35.96,51.98-8.73,19.88-13.15,41.25-13.15,63.52s4.42,43.64,13.15,63.52c8.7,19.83,20.8,37.32,35.96,51.98,15.13,14.65,33.07,26.4,53.32,34.91,20.32,8.54,42.2,12.87,65.04,12.87,25.39,0,49.7-5.3,72.24-15.77ZM928.26,329.99c-13.78-13.33-24.78-29.25-32.71-47.31-7.9-18-11.91-37.37-11.91-57.59s4.01-39.59,11.91-57.59c7.93-18.05,18.93-33.97,32.71-47.32,13.81-13.37,30.22-24.1,48.77-31.91,18.5-7.78,38.46-11.72,59.32-11.72,22.05,0,43.29,4.47,63.13,13.29,17.56,7.8,33.18,18.51,46.52,31.87l-26.7,24.4c-10.09-9.92-21.76-17.77-34.79-23.38-15.25-6.56-31.45-9.88-48.15-9.88-15.73,0-30.88,2.92-45.01,8.66-14.12,5.75-26.62,13.83-37.15,24.04-10.52,10.19-18.94,22.19-25.03,35.67-6.13,13.58-9.24,28.34-9.24,43.87s3.11,30.3,9.24,43.87c6.08,13.49,14.5,25.49,25.02,35.67,10.54,10.21,23.04,18.3,37.15,24.04,14.12,5.75,29.26,8.66,45.01,8.66s32.03-3.08,46.48-9.16c14.43-6.07,27.4-14.79,38.55-25.95l2.16-2.16v-67.6h36.29v80.82l-4.32,4.99c-14.7,17.64-32.58,31.42-53.12,40.95-20.59,9.55-42.8,14.4-66.03,14.4-20.87,0-40.82-3.94-59.32-11.72-18.55-7.8-34.96-18.53-48.77-31.91Z"/>
      <path class="cls-1" d="M1467.39,317.47h-233.31v65.79h233.31v-65.79ZM1452.64,368.51h-203.8v-36.29h203.8v36.29Z"/>
      <path class="cls-1" d="M1467.39,66.9h-233.31v65.79h233.31v-65.79ZM1452.64,117.94h-203.8v-36.29h203.8v36.29Z"/>
      <path class="cls-1" d="M1441.87,194.51h-207.79v65.79h207.79v-65.79ZM1427.11,245.55h-178.28v-36.29h178.28v36.29Z"/>
      <path class="cls-1" d="M1773.71,136.26c-6.09-13.81-14.52-25.99-25.05-36.2-10.53-10.19-22.91-18.34-36.82-24.23-14.01-5.93-29.26-8.94-45.33-8.94h-139.62v316.37h65.79v-89.09h20.06c2.85,11.89,7.49,23.16,13.82,33.58,7.35,12.09,16.55,22.78,27.33,31.76,10.81,9.01,23.25,16.15,36.97,21.21,13.76,5.07,28.51,7.65,43.85,7.65h32.9v-65.79h-32.9c-13.43,0-24.94-3.51-35.2-10.72-7.47-5.25-13.14-11.53-17.15-19.05,11.36-1.49,22.3-4.59,32.65-9.26,13.44-6.06,25.34-14.22,35.36-24.25,10.06-10.06,18.08-22,23.84-35.5,5.78-13.55,8.71-28.11,8.71-43.26s-3.1-30.39-9.21-44.27ZM1760.64,218.01c-5.02,11.75-11.98,22.14-20.71,30.86-8.76,8.76-19.19,15.9-31,21.23-11.76,5.31-24.43,8.29-37.65,8.87l-9.77.42,3.09,9.28c4.82,14.47,13.71,26.33,26.42,35.26,12.65,8.9,27.34,13.41,43.69,13.41h18.15v36.29h-18.15c-13.59,0-26.63-2.27-38.75-6.74-12.14-4.48-23.12-10.77-32.63-18.7-9.53-7.94-17.67-17.4-24.17-28.09-6.47-10.63-10.91-22.28-13.2-34.64l-1.12-6.03h-46.92v89.09h-36.29V81.65h124.87c14.09,0,27.41,2.61,39.58,7.77,12.23,5.18,23.1,12.33,32.31,21.24,9.16,8.88,16.5,19.49,21.82,31.55,5.28,12,7.96,24.89,7.96,38.33s-2.53,25.76-7.53,37.48Z"/>
      <path class="cls-1" d="M1712.38,136.11c-5.87-5.5-12.77-9.94-20.51-13.2-7.84-3.3-16.37-4.97-25.37-4.97h-88.58v124.73h88.58c9,0,17.54-1.67,25.37-4.96,7.74-3.26,14.64-7.7,20.51-13.2,5.94-5.57,10.71-12.26,14.19-19.88,3.52-7.72,5.31-15.9,5.31-24.32s-1.79-17.01-5.33-24.6c-3.48-7.44-8.24-14.03-14.17-19.59ZM1713.15,198.5c-2.68,5.87-6.34,11-10.86,15.24-4.59,4.3-10.03,7.79-16.15,10.37-6.01,2.53-12.61,3.81-19.64,3.81h-73.83v-95.22h73.83c7.02,0,13.63,1.28,19.64,3.82,6.12,2.58,11.56,6.07,16.15,10.36,4.55,4.26,8.21,9.33,10.89,15.06,2.62,5.63,3.95,11.8,3.95,18.37s-1.34,12.41-3.97,18.19Z"/>
      <path class="cls-1" d="M397.34,435.67l-65.96,208.6-64.25-208.6h-59.15l-64.25,208.6-65.96-208.6H8.95l99.29,316.37h70.71l58.6-188.97,58.6,188.97h70.71l99.29-316.37h-68.81ZM356.03,737.29h-49.01l-69.47-224.02-69.47,224.02h-49.01L29.04,450.43h37.91l76.96,243.36,74.96-243.36h37.37l74.96,243.36,76.95-243.36h37.91l-90.03,286.86Z"/>
      <path class="cls-1" d="M870.06,686.25h-132.71v49.62l-130.24-300.19h-66.75l-137.25,316.37h71.76l99.09-227.82,98.65,227.82h263.25v-316.37h-65.79v250.57ZM682.29,737.29l-108.3-250.12-108.79,250.12h-39.61l124.46-286.86h47.39l124.46,286.86h-39.6ZM884.81,450.43h36.29v286.86h-169v-36.29h132.71v-250.57Z"/>
      <path class="cls-1" d="M1102.54,686.25h-132.71v65.79h198.51v-316.37h-65.79v250.57ZM1117.29,450.43h36.29v286.86h-169v-36.29h132.71v-250.57Z"/>
      <path class="cls-1" d="M1232.46,501.47h233.31v-65.79h-233.31v65.79ZM1247.21,450.43h203.8v36.29h-203.8v-36.29Z"/>
      <path class="cls-1" d="M1440.24,563.28h-207.79v65.79h207.79v-65.79ZM1425.49,614.32h-178.28v-36.29h178.28v36.29Z"/>
      <path class="cls-1" d="M1232.46,752.04h233.31v-65.79h-233.31v65.79ZM1247.21,701h203.8v36.29h-203.8v-36.29Z"/>
      <path class="cls-1" d="M1608.08,752.04h65.79v-230.99h-65.79v230.99ZM1622.83,535.81h36.29v201.48h-36.29v-201.48Z"/>
      <path class="cls-1" d="M1511.1,501.47h259.76v-65.79h-259.76v65.79ZM1525.85,450.43h230.25v36.29h-230.25v-36.29Z"/>
    </g>
  </g>
</svg>